<!-- Generated by IcoMoon.io -->
<svg version="1.1" xmlns="http://www.w3.org/2000/svg">
    <symbol  viewBox="0 0 63 16" id="logo">
      <title>Rent-a-Car</title>
      <path fill="#ed2323" d="M16.117 6.624c1.263 0.079 2.521 0.158 3.779 0.222 0.108-0.049 0.265-0.079 0.506-0.099 6.471-0.331 13.724-0.519 28.75-1.305-2.609-0.178-14.957 0.262-22.687 0.509-3.71 0.119-7.42 0.272-11.125 0.499-0.069 0-0.437 0.035-0.85 0.094 0.545 0.020 1.091 0.045 1.626 0.079z"></path>
      <path fill="#fff" d="M54.213 6.787c-0.084-0.217-0.162-0.435-0.29-0.628 0.128-0.188 0.177-0.395 0.162-0.647-0.010-0.069-0.020-0.143-0.039-0.212-0.035-0.143-0.079-0.346-0.010-0.415l0.010-0.010c0.029-0.030 0.044-0.064 0.054-0.104 0.005-0.015 0.005-0.030 0.010-0.044v-0.020c-0.005-0.455-0.108-0.751-0.629-0.919-0.329-0.109-0.713-0.109-1.052-0.109h-0.137c-0.496-0.005-0.998-0.030-1.469-0.074-0.319-0.054-0.644-0.168-0.958-0.277-0.103-0.040-0.202-0.069-0.305-0.104-0.319-0.104-0.634-0.208-0.953-0.316-0.531-0.178-1.086-0.361-1.631-0.534-1.951-0.632-4.039-1.28-6.177-1.655-3.877-0.761-7.641-0.919-11.184-0.469-3.474 0.44-6.575 2.085-9.572 3.676l-0.58 0.306c-1.926 0.010-4.432 0.109-6.796 0.796-1.425 0.415-2.894 0.988-4.368 1.7l-0.398 0.193h1.155l0.020-0.010c0.968-0.42 2.496-1.018 3.548-1.344 2.319-0.721 4.791-0.825 6.904-0.835 0.039 0 0.079-0.010 0.118-0.030l0.005-0.005c0.216-0.114 0.432-0.227 0.649-0.341 2.904-1.542 5.911-3.138 9.257-3.597 3.454-0.474 7.199-0.326 11.135 0.445 2.098 0.371 4.191 1.018 6.152 1.65 0.595 0.193 1.199 0.39 1.784 0.588l0.703 0.232 0.329 0.114c0.349 0.124 0.713 0.247 1.076 0.306h0.020l0.029 0.005c0.496 0.045 1.042 0.069 1.666 0.079 0.305 0 0.609 0.035 0.904 0.094 0.123 0.025 0.182 0.064 0.216 0.128-0.698 0-1.371 0.148-1.946 0.296l-0.162 0.040c-0.432 0.109-0.924 0.232-1.312 0.464-0.074 0.044-0.118 0.119-0.118 0.198-0.005 0.025 0 0.054 0.005 0.079 0.177 0.86 1.111 0.924 1.42 0.944 0.732 0.049 1.42 0.035 2.034-0.040 0.118 0.158 0.196 0.331 0.25 0.474l0.025 0.064h0.506l-0.059-0.133zM53.427 5.888c-0.486 0.059-0.988 0.059-1.508 0.054h-0.113c-0.457 0-1.017-0.005-1.223-0.395 0.256-0.119 0.541-0.193 0.82-0.267l0.221-0.059c0.737-0.208 1.346-0.306 1.897-0.311-0.010 0.119 0.015 0.242 0.034 0.366 0.049 0.306 0.064 0.504-0.128 0.613z"></path>
      <path fill="#fff" d="M45.919 4.267c0 0-0.413 0.158-0.59 0.193-0.305 0.059-1.337 0.173-1.337 0.173 1.042 0.089 5.454-0.183 5.258-0.183-1.041 0-2.521-0.114-3.331-0.183z"></path>
      <path fill="#fff" d="M46.193 3.343c0.162-0.168 0.005-0.262-0.039-0.277-4.31-1.453-8.992-2.248-13.562-2.169-0.378 0.010-0.762 0.020-1.135 0.035-2.82 0.138-5.577 1.013-8.098 2.308-0.049 0.025-0.103 0.049-0.147 0.074-0.85 0.445-1.671 0.934-2.472 1.463-0.211 0.153-0.167 0.272 0.064 0.301 0.26 0.020 0.673 0.010 1.002 0.015 0.413 0.005 2.054-0.025 3.754-0.059 1.479-0.030 2.997-0.064 3.784-0.089 2.693-0.084 5.381-0.168 8.078-0.213 1.459-0.025 2.919-0.054 4.378-0.133 0.895-0.049 1.892-0.045 2.752-0.326 0.624-0.193 1.18-0.46 1.641-0.929zM21.232 4.816c0.418-0.267 0.84-0.524 1.273-0.771-0.088 0.227-0.088 0.479 0.044 0.746-0.432 0.015-0.88 0.040-1.317 0.025zM31.531 4.554c-1.582 0.054-3.16 0.124-4.742 0.158l-2.211 0.044c0.236-0.43 0.226-0.776 0.103-1.028-0.142-0.296-0.427-0.465-0.634-0.499 2.324-1.117 4.825-1.863 7.395-1.996 0.378-0.020 0.762-0.035 1.145-0.040-0.491 1.057-0.776 2.234-1.056 3.36zM33.079 4.559l-0.305 0.005c0.084-0.865 0.418-2.209 0.609-3.049 0 0-0.226 2.204-0.305 3.044zM40.43 4.361c-1.882 0.064-3.764 0.084-5.646 0.109l-0.526 0.010c0.010-1.092 0.103-2.184 0.167-3.271 1.735 0.059 3.459 0.237 5.174 0.524 0.005 0.005 0.010 0.010 0.010 0.010 0.889 0.771 1.715 1.636 2.476 2.54-0.555 0.035-1.105 0.054-1.661 0.074l0.005 0.005zM42.916 4.223c-0.152 0.015-0.305 0.025-0.457 0.035-0.708-0.855-1.474-1.68-2.295-2.431 1.921 0.351 3.808 0.835 5.665 1.448-0.393 0.341-0.845 0.553-1.351 0.712s-1.041 0.193-1.562 0.237z"></path>
      <path fill="#fff" d="M6.481 9.94v-0.079c0-0.766-0.491-1.161-1.317-1.161h-3.675v4.24h0.767v-1.641h2.614c0.708 0 0.708 0.44 0.708 0.771v0.474c0 0.128 0.005 0.267 0.029 0.395h0.821c-0.020-0.128-0.034-0.267-0.034-0.425v-0.504c0-0.44-0.177-0.82-0.585-1.048 0.403-0.128 0.668-0.42 0.668-1.033l0.005 0.010zM2.255 10.548v-1.137h2.909c0.477 0 0.585 0.247 0.585 0.45v0.079c0 0.331-0.182 0.608-0.585 0.608h-2.909z"></path>
      <path fill="#fff" d="M12.942 9.347v-0.642h-4.442v4.24h4.442v-0.642h-3.725v-1.102h3.292v-0.642h-3.292v-1.211h3.725z"></path>
      <path fill="#fff" d="M18.893 8.705v3.444l-3.086-3.444h-0.948v4.24h0.717v-3.434l3.071 3.434h0.963v-4.245l-0.717 0.005z"></path>
      <path fill="#fff" d="M25.905 8.705h-4.825v0.692h2.054v3.548h0.717v-3.548h2.054v-0.692z"></path>
      <path fill="#fff" d="M26.843 11.215h3.164v-0.642h-3.164v0.642z"></path>
      <path fill="#ed2323" d="M35.634 12.944h0.821l-2.305-4.22 0.005-0.020h-0.845l0.015 0.020-2.314 4.22h0.821l0.418-0.756h2.968l0.418 0.756zM32.637 11.482l1.096-2.006 1.096 2.006h-2.192z"></path>
      <path fill="#fff" d="M37.457 11.215h3.164v-0.642h-3.164v0.642z"></path>
      <path fill="#fff" d="M45.009 13.018c1.907 0 2.673-0.766 2.81-1.66h-0.781c-0.153 0.549-0.732 0.954-2.034 0.954-1.523 0-2.123-0.578-2.123-1.418v-0.148c0-0.84 0.595-1.423 2.123-1.423 1.169 0 1.955 0.42 2.039 0.914h0.781c-0.064-0.85-1.047-1.621-2.82-1.621-2.172 0-2.855 1.008-2.855 2.13v0.148c0 1.117 0.683 2.13 2.855 2.13l0.005-0.005z"></path>
      <path fill="#fff" d="M53.682 12.944h0.82l-2.304-4.22 0.005-0.020h-0.845l0.015 0.020-2.314 4.22h0.82l0.418-0.756h2.968l0.418 0.756zM50.689 11.482l1.096-2.006 1.096 2.006h-2.192z"></path>
      <path fill="#fff" d="M61.023 9.94v-0.079c0-0.766-0.492-1.161-1.317-1.161h-3.676v4.24h0.767v-1.641h2.614c0.712 0 0.712 0.44 0.712 0.771v0.474c0 0.128 0.005 0.267 0.030 0.395h0.82c-0.020-0.128-0.035-0.267-0.035-0.425v-0.504c0-0.44-0.177-0.82-0.585-1.048 0.403-0.128 0.668-0.42 0.668-1.033v0.010zM56.797 10.548v-1.137h2.909c0.477 0 0.585 0.247 0.585 0.45v0.079c0 0.331-0.182 0.608-0.585 0.608h-2.909z"></path>
    </symbol>

    <symbol  viewBox="0 0 16 16" id="heart">
      <title>Heart</title>
        <path stroke-linejoin="round" stroke-linecap="round" stroke-miterlimit="4" stroke-width="1.3333" d="M13.893 3.073c-0.341-0.341-0.745-0.611-1.19-0.795s-0.922-0.279-1.404-0.279c-0.482 0-0.959 0.095-1.404 0.279s-0.849 0.455-1.19 0.795l-0.707 0.707-0.707-0.707c-0.688-0.688-1.621-1.074-2.593-1.074s-1.906 0.386-2.593 1.074c-0.688 0.688-1.074 1.621-1.074 2.593s0.386 1.906 1.074 2.593l5.893 5.893 5.893-5.893c0.341-0.341 0.611-0.745 0.795-1.19s0.279-0.922 0.279-1.404-0.095-0.959-0.279-1.404c-0.184-0.445-0.455-0.849-0.795-1.19z"></path>
    </symbol>

    <symbol  viewBox="0 0 16 16" id="x-close">
      <title>X-close</title>
      <path fill="none" stroke-linejoin="round" stroke-linecap="round" stroke-miterlimit="4" stroke-width="1.2" d="M12 4l-8 8"></path>
      <path fill="none" stroke-linejoin="round" stroke-linecap="round" stroke-miterlimit="4" stroke-width="1.2" d="M4 4l8 8"></path>
    </symbol>
</svg>
